<svg xmlns="http://www.w3.org/2000/svg" viewBox="0 0 512 512" fill="none">
  <circle cx="256" cy="256" r="154" fill="#000" opacity=".08"/>
  <circle cx="256" cy="256" r="92" fill="#000" opacity=".12"/>
  <path d="M256 96v86M256 330v86M96 256h86M330 256h86" stroke="#000" stroke-width="24" stroke-linecap="round"/>
  <path d="M144 144l62 62M368 144l-62 62M144 368l62-62M368 368l-62-62" stroke="#000" stroke-width="18" stroke-linecap="round" opacity=".55"/>
  <circle cx="256" cy="256" r="42" fill="#000"/>
  <circle cx="256" cy="96" r="26" fill="#000"/>
  <circle cx="256" cy="416" r="26" fill="#000"/>
  <circle cx="96" cy="256" r="26" fill="#000"/>
  <circle cx="416" cy="256" r="26" fill="#000"/>
  <rect x="126" y="126" width="40" height="40" rx="6" fill="#000"/>
  <rect x="346" y="126" width="40" height="40" rx="6" fill="#000"/>
  <rect x="126" y="346" width="40" height="40" rx="6" fill="#000"/>
  <rect x="346" y="346" width="40" height="40" rx="6" fill="#000"/>
  <path d="M236 236h40v40h-40z" fill="#fff" opacity=".82"/>
  <path d="M256 210v92M210 256h92" stroke="#fff" stroke-width="8" stroke-linecap="round" opacity=".82"/>
</svg>
