<svg width="512" height="512" viewBox="0 0 512 512" fill="none" xmlns="http://www.w3.org/2000/svg">
<g clip-path="url(#clip0_203_71)">
<g filter="url(#filter0_d_203_71)">
<path d="M465.89 43.514H402.299V18.067C402.299 8.089 394.21 0 384.233 0C374.256 0 366.166 8.089 366.166 18.067V43.514H145.834V18.067C145.834 8.089 137.745 0 127.767 0C117.789 0 109.7 8.089 109.7 18.067V43.514H46.11C36.132 43.514 28.043 51.603 28.043 61.581C28.043 73.091 28.043 482.773 28.043 493.934C28.043 503.912 36.132 512.001 46.11 512.001H465.89C475.868 512.001 483.957 503.912 483.957 493.934C483.957 482.772 483.957 73.091 483.957 61.581C483.957 51.603 475.868 43.514 465.89 43.514ZM447.824 475.867H64.176V174.347H447.823V475.867H447.824ZM447.824 138.213H64.176V79.647H447.823V138.213H447.824Z" fill="black"/>
</g>
<g filter="url(#filter1_d_203_71)">
<path d="M258.2 395.56C266.6 395.56 273.227 392.573 278.08 386.6C283.12 380.44 285.64 372.32 285.64 362.24C285.64 353.093 283.213 345.813 278.36 340.4C273.507 334.987 266.88 332.28 258.48 332.28C246.347 332.28 235.333 337.413 225.44 347.68C226.56 364.107 230.013 376.24 235.8 384.08C241.773 391.733 249.24 395.56 258.2 395.56ZM306.36 238.48V270.12C299.08 266.387 290.68 264.52 281.16 264.52C266.227 264.52 254.093 269.56 244.76 279.64C235.427 289.72 229.453 302.693 226.84 318.56C238.04 308.293 251.293 303.16 266.6 303.16C282.84 303.16 295.813 308.48 305.52 319.12C315.413 329.76 320.36 344.04 320.36 361.96C320.36 380.44 314.76 395.747 303.56 407.88C292.36 419.827 277.147 425.8 257.92 425.8C236.08 425.8 219.467 417.867 208.08 402C196.693 385.947 191 364.573 191 337.88C191 306.893 199.12 281.88 215.36 262.84C231.6 243.613 252.787 234 278.92 234C289 234 298.147 235.493 306.36 238.48Z" fill="black"/>
<path d="M258.48 333.28C246.791 333.28 236.129 338.163 226.47 348.058C227.616 364.176 231.033 375.934 236.599 383.479C242.399 390.903 249.582 394.56 258.2 394.56C266.33 394.56 272.659 391.686 277.304 385.97L277.306 385.967C282.164 380.029 284.64 372.152 284.64 362.24C284.64 353.274 282.265 346.253 277.615 341.067C272.982 335.9 266.645 333.28 258.48 333.28ZM307.36 271.757L305.903 271.01C298.786 267.36 290.547 265.52 281.16 265.52C266.478 265.52 254.621 270.463 245.494 280.319C236.867 289.637 231.135 301.489 228.329 315.922C239.249 306.751 252.02 302.16 266.6 302.16C283.081 302.16 296.337 307.571 306.259 318.446H306.258C316.357 329.311 321.36 343.853 321.36 361.96C321.36 380.659 315.686 396.218 304.295 408.559L304.29 408.564L304.289 408.563C292.867 420.747 277.371 426.8 257.92 426.8C235.802 426.8 218.866 418.745 207.268 402.583L207.265 402.578C195.722 386.305 190 364.708 190 337.88C190 306.716 198.169 281.455 214.596 262.194C231.034 242.733 252.505 233 278.92 233C289.099 233 298.364 234.508 306.702 237.54L307.36 237.779V271.757Z" stroke="black" stroke-width="2"/>
</g>
</g>
<defs>
<filter id="filter0_d_203_71" x="24.043" y="0" width="463.914" height="520.001" filterUnits="userSpaceOnUse" color-interpolation-filters="sRGB">
<feFlood flood-opacity="0" result="BackgroundImageFix"/>
<feColorMatrix in="SourceAlpha" type="matrix" values="0 0 0 0 0 0 0 0 0 0 0 0 0 0 0 0 0 0 127 0" result="hardAlpha"/>
<feOffset dy="4"/>
<feGaussianBlur stdDeviation="2"/>
<feComposite in2="hardAlpha" operator="out"/>
<feColorMatrix type="matrix" values="0 0 0 0 0 0 0 0 0 0 0 0 0 0 0 0 0 0 0.25 0"/>
<feBlend mode="normal" in2="BackgroundImageFix" result="effect1_dropShadow_203_71"/>
<feBlend mode="normal" in="SourceGraphic" in2="effect1_dropShadow_203_71" result="shape"/>
</filter>
<filter id="filter1_d_203_71" x="185" y="232" width="141.359" height="203.8" filterUnits="userSpaceOnUse" color-interpolation-filters="sRGB">
<feFlood flood-opacity="0" result="BackgroundImageFix"/>
<feColorMatrix in="SourceAlpha" type="matrix" values="0 0 0 0 0 0 0 0 0 0 0 0 0 0 0 0 0 0 127 0" result="hardAlpha"/>
<feOffset dy="4"/>
<feGaussianBlur stdDeviation="2"/>
<feComposite in2="hardAlpha" operator="out"/>
<feColorMatrix type="matrix" values="0 0 0 0 0 0 0 0 0 0 0 0 0 0 0 0 0 0 0.25 0"/>
<feBlend mode="normal" in2="BackgroundImageFix" result="effect1_dropShadow_203_71"/>
<feBlend mode="normal" in="SourceGraphic" in2="effect1_dropShadow_203_71" result="shape"/>
</filter>
<clipPath id="clip0_203_71">
<rect width="512" height="512" fill="white"/>
</clipPath>
</defs>
</svg>
