<svg width="512" height="512" viewBox="0 0 512 512" fill="none" xmlns="http://www.w3.org/2000/svg">
<g clip-path="url(#clip0_203_58)">
<path d="M465.89 43.514H402.299V18.067C402.299 8.089 394.21 0 384.233 0C374.256 0 366.166 8.089 366.166 18.067V43.514H145.834V18.067C145.834 8.089 137.745 0 127.767 0C117.789 0 109.7 8.089 109.7 18.067V43.514H46.11C36.132 43.514 28.043 51.603 28.043 61.581C28.043 73.091 28.043 482.773 28.043 493.934C28.043 503.912 36.132 512.001 46.11 512.001H465.89C475.868 512.001 483.957 503.912 483.957 493.934C483.957 482.772 483.957 73.091 483.957 61.581C483.957 51.603 475.868 43.514 465.89 43.514ZM447.824 475.867H64.176V174.347H447.823V475.867H447.824ZM447.824 138.213H64.176V79.647H447.823V138.213H447.824Z" fill="black"/>
<path d="M250.6 240C268.705 240 283.513 245.001 294.929 255.079L295.471 255.548C306.759 265.451 312.36 279.314 312.36 297C312.36 330.117 289.889 363.282 245.503 396.521H316.56V427.36H195V398.963L195.422 398.664C217.21 383.208 236.007 366.735 251.818 349.249C267.622 331.585 275.36 315.86 275.36 302.04C275.36 292.909 272.719 285.914 267.546 280.919C262.378 275.93 254.823 273.36 244.72 273.36C229.497 273.36 214.874 279.04 200.832 290.495L199.2 291.826V256.463L199.596 256.163C205.863 251.415 213.622 247.542 222.85 244.529C232.091 241.512 241.342 240 250.6 240Z" fill="black" stroke="black" stroke-width="2"/>
</g>
<defs>
<clipPath id="clip0_203_58">
<rect width="512" height="512" fill="white"/>
</clipPath>
</defs>
</svg>
