<svg width="512" height="512" viewBox="0 0 512 512" fill="none" xmlns="http://www.w3.org/2000/svg">
<g clip-path="url(#clip0_203_62)">
<path d="M465.89 43.514H402.299V18.067C402.299 8.089 394.21 0 384.233 0C374.256 0 366.166 8.089 366.166 18.067V43.514H145.834V18.067C145.834 8.089 137.745 0 127.767 0C117.789 0 109.7 8.089 109.7 18.067V43.514H46.11C36.132 43.514 28.043 51.603 28.043 61.581C28.043 73.091 28.043 482.773 28.043 493.934C28.043 503.912 36.132 512.001 46.11 512.001H465.89C475.868 512.001 483.957 503.912 483.957 493.934C483.957 482.772 483.957 73.091 483.957 61.581C483.957 51.603 475.868 43.514 465.89 43.514ZM447.824 475.867H64.176V174.347H447.823V475.867H447.824ZM447.824 138.213H64.176V79.647H447.823V138.213H447.824Z" fill="black"/>
<path d="M246.76 238C266.143 238 281.43 242.705 292.493 252.242H292.492C303.728 261.767 309.36 273.991 309.36 288.84C309.36 299.54 306.92 308.612 301.981 315.996C297.501 322.695 291.005 327.941 282.551 331.759C291.855 334.567 299.241 339.361 304.655 346.168L305.205 346.858C310.797 354.056 313.56 363.115 313.56 373.96C313.56 389.552 307.744 402.34 296.129 412.241L296.128 412.242C284.688 421.966 268.653 426.76 248.16 426.76C229.202 426.76 212.996 423.663 199.578 417.427L199 417.158V382.086L200.474 382.88C214.892 390.644 230.037 394.52 245.92 394.521C255.855 394.521 263.438 392.22 268.8 387.752C274.361 383.086 277.12 377.206 277.12 370.04C277.12 362.246 273.992 356.488 267.725 352.621C261.378 348.705 251.729 346.68 238.64 346.68H227V316.4H238.64C248.388 316.4 256.497 314.286 263.021 310.117C269.46 306.004 272.64 300.251 272.64 292.76C272.64 285.134 270.312 279.576 265.798 275.895C261.245 272.181 254.303 270.24 244.8 270.24C232.323 270.24 219.809 274.091 207.245 281.851L205.72 282.793V248.766L206.242 248.481C219.077 241.498 232.587 238 246.76 238Z" fill="black" stroke="black" stroke-width="2"/>
</g>
<defs>
<clipPath id="clip0_203_62">
<rect width="512" height="512" fill="white"/>
</clipPath>
</defs>
</svg>
