<svg width="512" height="512" viewBox="0 0 512 512" fill="none" xmlns="http://www.w3.org/2000/svg">
<g clip-path="url(#clip0_203_2)">
<path d="M465.89 43.514H402.299V18.067C402.299 8.089 394.21 0 384.233 0C374.256 0 366.166 8.089 366.166 18.067V43.514H145.834V18.067C145.834 8.089 137.745 0 127.767 0C117.789 0 109.7 8.089 109.7 18.067V43.514H46.11C36.132 43.514 28.043 51.603 28.043 61.581C28.043 73.091 28.043 482.773 28.043 493.934C28.043 503.912 36.132 512.001 46.11 512.001H465.89C475.868 512.001 483.957 503.912 483.957 493.934C483.957 482.772 483.957 73.091 483.957 61.581C483.957 51.603 475.868 43.514 465.89 43.514ZM447.824 475.867H64.176V174.347H447.823V475.867H447.824ZM447.824 138.213H64.176V79.647H447.823V138.213H447.824Z" fill="black"/>
<path d="M300 226V428H261.745V268.534L214.52 297.273L213 298.198V257.622L213.49 257.332L266.196 226.14L266.433 226H300Z" fill="black" stroke="black" stroke-width="2"/>
</g>
<defs>
<clipPath id="clip0_203_2">
<rect width="512" height="512" fill="white"/>
</clipPath>
</defs>
</svg>
