<svg width="512" height="512" viewBox="0 0 512 512" fill="none" xmlns="http://www.w3.org/2000/svg">
<g clip-path="url(#clip0_203_68)">
<path d="M465.89 43.514H402.299V18.067C402.299 8.089 394.21 0 384.233 0C374.256 0 366.166 8.089 366.166 18.067V43.514H145.834V18.067C145.834 8.089 137.745 0 127.767 0C117.789 0 109.7 8.089 109.7 18.067V43.514H46.11C36.132 43.514 28.043 51.603 28.043 61.581C28.043 73.091 28.043 482.773 28.043 493.934C28.043 503.912 36.132 512.001 46.11 512.001H465.89C475.868 512.001 483.957 503.912 483.957 493.934C483.957 482.772 483.957 73.091 483.957 61.581C483.957 51.603 475.868 43.514 465.89 43.514ZM447.824 475.867H64.176V174.347H447.823V475.867H447.824ZM447.824 138.213H64.176V79.647H447.823V138.213H447.824Z" fill="black"/>
<path d="M304.96 240V270.84H239.44V308.94C244.488 307.968 249.381 307.48 254.12 307.48C273.888 307.48 289.287 312.565 300.168 322.874H300.167C311.228 333.176 316.72 347.178 316.72 364.76C316.72 383.67 310.468 398.886 297.913 410.3C285.355 421.716 267.818 427.36 245.44 427.36C226.106 427.36 209.795 424.075 196.553 417.454L196 417.178V382.585L197.519 383.505C209.663 390.865 223.759 394.56 239.84 394.56C253.46 394.56 263.491 391.938 270.101 386.857C276.66 381.815 280 374.232 280 363.92C280 355.985 277.133 349.847 271.425 345.388L271.418 345.383L271.412 345.378C265.869 340.908 257.819 338.6 247.12 338.6C233.088 338.6 219.325 341.738 205.822 348.026L204.4 348.688V240H304.96Z" fill="black" stroke="black" stroke-width="2"/>
</g>
<defs>
<clipPath id="clip0_203_68">
<rect width="512" height="512" fill="white"/>
</clipPath>
</defs>
</svg>
